<mxfile host="app.diagrams.net" agent="Mozilla/5.0 (Windows NT 10.0; Win64; x64) AppleWebKit/537.36 (KHTML, like Gecko) Chrome/135.0.0.0 Safari/537.36" version="26.2.13">
  <diagram name="Page-1" id="J6ApGIcIvu08n0AV1_5H">
    <mxGraphModel dx="195" dy="1820" grid="1" gridSize="10" guides="1" tooltips="1" connect="1" arrows="1" fold="1" page="1" pageScale="1" pageWidth="827" pageHeight="1169" math="0" shadow="0">
      <root>
        <mxCell id="0" />
        <mxCell id="1" parent="0" />
        <object label="&lt;font style=&quot;font-size: 19px;&quot;&gt;CLIENT&lt;/font&gt;&lt;div&gt;&lt;br&gt;&lt;/div&gt;" id="g4EMc-4wjH0lB5KUr_8Z-4">
          <mxCell style="shape=umlActor;verticalLabelPosition=bottom;verticalAlign=top;html=1;outlineConnect=0;fontFamily=Verdana;" parent="1" vertex="1">
            <mxGeometry x="95" y="85" width="100" height="200" as="geometry" />
          </mxCell>
        </object>
        <mxCell id="zgoLNW42WSqc04WnMS89-10" value="&lt;b&gt;&lt;font style=&quot;font-size: 20px;&quot;&gt;INSURANCE MANAGEMENT SYSTEM&lt;/font&gt;&lt;/b&gt;&lt;div&gt;&lt;b&gt;&lt;font style=&quot;font-size: 20px;&quot;&gt;&lt;br&gt;&lt;/font&gt;&lt;/b&gt;&lt;/div&gt;&lt;div&gt;&lt;b&gt;&lt;font style=&quot;font-size: 20px;&quot;&gt;&lt;br&gt;&lt;/font&gt;&lt;/b&gt;&lt;/div&gt;&lt;div&gt;&lt;b&gt;&lt;font style=&quot;font-size: 20px;&quot;&gt;&lt;br&gt;&lt;/font&gt;&lt;/b&gt;&lt;/div&gt;&lt;div&gt;&lt;b&gt;&lt;font style=&quot;font-size: 20px;&quot;&gt;&lt;br&gt;&lt;/font&gt;&lt;/b&gt;&lt;/div&gt;&lt;div&gt;&lt;b&gt;&lt;font style=&quot;font-size: 20px;&quot;&gt;&lt;br&gt;&lt;/font&gt;&lt;/b&gt;&lt;/div&gt;&lt;div&gt;&lt;b&gt;&lt;font style=&quot;font-size: 20px;&quot;&gt;&lt;br&gt;&lt;/font&gt;&lt;/b&gt;&lt;/div&gt;&lt;div&gt;&lt;b&gt;&lt;font style=&quot;font-size: 20px;&quot;&gt;&lt;br&gt;&lt;/font&gt;&lt;/b&gt;&lt;/div&gt;&lt;div&gt;&lt;b&gt;&lt;font style=&quot;font-size: 20px;&quot;&gt;&amp;nbsp;&lt;/font&gt;&lt;/b&gt;&lt;/div&gt;&lt;div&gt;&lt;b&gt;&lt;font style=&quot;font-size: 20px;&quot;&gt;&lt;br&gt;&lt;/font&gt;&lt;/b&gt;&lt;/div&gt;&lt;div&gt;&lt;b&gt;&lt;font style=&quot;font-size: 20px;&quot;&gt;&lt;br&gt;&lt;/font&gt;&lt;/b&gt;&lt;/div&gt;&lt;div&gt;&lt;b&gt;&lt;font style=&quot;font-size: 20px;&quot;&gt;&lt;br&gt;&lt;/font&gt;&lt;/b&gt;&lt;/div&gt;&lt;div&gt;&lt;b&gt;&lt;font style=&quot;font-size: 20px;&quot;&gt;&lt;br&gt;&lt;/font&gt;&lt;/b&gt;&lt;/div&gt;&lt;div&gt;&lt;b&gt;&lt;font style=&quot;font-size: 20px;&quot;&gt;&lt;br&gt;&lt;/font&gt;&lt;/b&gt;&lt;/div&gt;&lt;div&gt;&lt;b&gt;&lt;font style=&quot;font-size: 20px;&quot;&gt;&lt;br&gt;&lt;/font&gt;&lt;/b&gt;&lt;/div&gt;&lt;div&gt;&lt;b&gt;&lt;font style=&quot;font-size: 20px;&quot;&gt;&lt;br&gt;&lt;/font&gt;&lt;/b&gt;&lt;/div&gt;&lt;div&gt;&lt;b&gt;&lt;font style=&quot;font-size: 20px;&quot;&gt;&lt;br&gt;&lt;/font&gt;&lt;/b&gt;&lt;/div&gt;&lt;div&gt;&lt;b&gt;&lt;font style=&quot;font-size: 20px;&quot;&gt;&lt;br&gt;&lt;/font&gt;&lt;/b&gt;&lt;/div&gt;&lt;div&gt;&lt;b&gt;&lt;font style=&quot;font-size: 20px;&quot;&gt;&lt;br&gt;&lt;/font&gt;&lt;/b&gt;&lt;/div&gt;&lt;div&gt;&lt;b&gt;&lt;font style=&quot;font-size: 20px;&quot;&gt;&lt;br&gt;&lt;/font&gt;&lt;/b&gt;&lt;/div&gt;&lt;div&gt;&lt;b&gt;&lt;font style=&quot;font-size: 20px;&quot;&gt;&lt;br&gt;&lt;/font&gt;&lt;/b&gt;&lt;/div&gt;&lt;div&gt;&lt;b&gt;&lt;font style=&quot;font-size: 20px;&quot;&gt;&lt;br&gt;&lt;/font&gt;&lt;/b&gt;&lt;/div&gt;&lt;div&gt;&lt;b&gt;&lt;font style=&quot;font-size: 20px;&quot;&gt;&lt;br&gt;&lt;/font&gt;&lt;/b&gt;&lt;/div&gt;&lt;div&gt;&lt;br&gt;&lt;/div&gt;" style="rounded=0;whiteSpace=wrap;html=1;verticalAlign=top;" parent="1" vertex="1">
          <mxGeometry x="230" y="-90" width="680" height="850" as="geometry" />
        </mxCell>
        <object label="&lt;font style=&quot;font-size: 17px;&quot;&gt;ADMIN&lt;/font&gt;" id="zgoLNW42WSqc04WnMS89-11">
          <mxCell style="shape=umlActor;verticalLabelPosition=bottom;verticalAlign=top;html=1;outlineConnect=0;fontFamily=Verdana;" parent="1" vertex="1">
            <mxGeometry x="50" y="520" width="90" height="170" as="geometry" />
          </mxCell>
        </object>
        <mxCell id="zgoLNW42WSqc04WnMS89-12" value="&lt;font style=&quot;font-size: 14px;&quot;&gt;POLICY OFFICER&lt;/font&gt;" style="shape=umlActor;verticalLabelPosition=bottom;verticalAlign=top;html=1;outlineConnect=0;" parent="1" vertex="1">
          <mxGeometry x="970" y="155.5" width="90" height="170" as="geometry" />
        </mxCell>
        <mxCell id="zgoLNW42WSqc04WnMS89-13" value="LOGIN" style="ellipse;whiteSpace=wrap;html=1;" parent="1" vertex="1">
          <mxGeometry x="500" y="-40" width="108.75" height="40" as="geometry" />
        </mxCell>
        <mxCell id="zgoLNW42WSqc04WnMS89-14" value="&lt;b&gt;CLIENT REGISTRATION&lt;/b&gt;" style="ellipse;whiteSpace=wrap;html=1;" parent="1" vertex="1">
          <mxGeometry x="271.25" y="10" width="108.75" height="50" as="geometry" />
        </mxCell>
        <mxCell id="zgoLNW42WSqc04WnMS89-15" value="&lt;b&gt;&lt;font style=&quot;font-size: 14px;&quot;&gt;UPDATE PROFILE&lt;/font&gt;&lt;/b&gt;" style="ellipse;whiteSpace=wrap;html=1;" parent="1" vertex="1">
          <mxGeometry x="262.19" y="70" width="115" height="40" as="geometry" />
        </mxCell>
        <mxCell id="zgoLNW42WSqc04WnMS89-16" value="&lt;b&gt;&lt;font style=&quot;font-size: 13px;&quot;&gt;SUBMIT POLICY APPLICATION&lt;/font&gt;&lt;/b&gt;" style="ellipse;whiteSpace=wrap;html=1;" parent="1" vertex="1">
          <mxGeometry x="258.12" y="120" width="130" height="50" as="geometry" />
        </mxCell>
        <mxCell id="zgoLNW42WSqc04WnMS89-17" value="&lt;b&gt;&lt;font style=&quot;font-size: 14px;&quot;&gt;MAKE CONTRIBUTION&lt;/font&gt;&lt;/b&gt;" style="ellipse;whiteSpace=wrap;html=1;" parent="1" vertex="1">
          <mxGeometry x="271.25" y="191" width="110" height="50" as="geometry" />
        </mxCell>
        <mxCell id="zgoLNW42WSqc04WnMS89-18" value="&lt;b style=&quot;&quot;&gt;&lt;font style=&quot;font-size: 13px;&quot;&gt;VIEW CONTRIBUTIONS&lt;/font&gt;&lt;/b&gt;" style="ellipse;whiteSpace=wrap;html=1;" parent="1" vertex="1">
          <mxGeometry x="265.64" y="250" width="115.61" height="50" as="geometry" />
        </mxCell>
        <mxCell id="zgoLNW42WSqc04WnMS89-19" value="&lt;span style=&quot;font-size: 15px;&quot;&gt;&lt;b&gt;FILE CLAIM&lt;/b&gt;&lt;/span&gt;" style="ellipse;whiteSpace=wrap;html=1;" parent="1" vertex="1">
          <mxGeometry x="263.45" y="310" width="120" height="40" as="geometry" />
        </mxCell>
        <mxCell id="zgoLNW42WSqc04WnMS89-20" value="&lt;span style=&quot;font-size: 15px;&quot;&gt;&lt;b&gt;VIEW CLAIM STATUS&lt;/b&gt;&lt;/span&gt;" style="ellipse;whiteSpace=wrap;html=1;" parent="1" vertex="1">
          <mxGeometry x="268.12" y="360" width="120" height="40" as="geometry" />
        </mxCell>
        <mxCell id="zgoLNW42WSqc04WnMS89-21" value="&lt;b&gt;&lt;font style=&quot;font-size: 15px;&quot;&gt;Terminate POLICY&lt;/font&gt;&lt;/b&gt;" style="ellipse;whiteSpace=wrap;html=1;" parent="1" vertex="1">
          <mxGeometry x="263.45000000000005" y="430" width="120" height="40" as="geometry" />
        </mxCell>
        <mxCell id="zgoLNW42WSqc04WnMS89-35" value="" style="endArrow=classic;html=1;rounded=0;entryX=0;entryY=0.5;entryDx=0;entryDy=0;" parent="1" target="zgoLNW42WSqc04WnMS89-14" edge="1">
          <mxGeometry width="50" height="50" relative="1" as="geometry">
            <mxPoint x="172.5" y="148" as="sourcePoint" />
            <mxPoint x="317.5" y="86" as="targetPoint" />
            <Array as="points" />
          </mxGeometry>
        </mxCell>
        <mxCell id="zgoLNW42WSqc04WnMS89-36" value="" style="endArrow=classic;html=1;rounded=0;entryX=0;entryY=0.5;entryDx=0;entryDy=0;exitX=0.617;exitY=0.967;exitDx=0;exitDy=0;exitPerimeter=0;" parent="1" target="zgoLNW42WSqc04WnMS89-15" edge="1">
          <mxGeometry width="50" height="50" relative="1" as="geometry">
            <mxPoint x="175.85000000000014" y="147.01000000000022" as="sourcePoint" />
            <mxPoint x="350" y="105" as="targetPoint" />
            <Array as="points" />
          </mxGeometry>
        </mxCell>
        <mxCell id="zgoLNW42WSqc04WnMS89-37" value="" style="endArrow=classic;html=1;rounded=0;entryX=0;entryY=0.5;entryDx=0;entryDy=0;" parent="1" target="zgoLNW42WSqc04WnMS89-17" edge="1">
          <mxGeometry width="50" height="50" relative="1" as="geometry">
            <mxPoint x="190" y="150" as="sourcePoint" />
            <mxPoint x="340" y="246.5" as="targetPoint" />
            <Array as="points" />
          </mxGeometry>
        </mxCell>
        <mxCell id="zgoLNW42WSqc04WnMS89-38" value="" style="endArrow=classic;html=1;rounded=0;entryX=0.076;entryY=0.307;entryDx=0;entryDy=0;entryPerimeter=0;" parent="1" target="zgoLNW42WSqc04WnMS89-16" edge="1">
          <mxGeometry width="50" height="50" relative="1" as="geometry">
            <mxPoint x="190" y="150" as="sourcePoint" />
            <mxPoint x="310" y="192" as="targetPoint" />
            <Array as="points" />
          </mxGeometry>
        </mxCell>
        <mxCell id="zgoLNW42WSqc04WnMS89-39" value="" style="endArrow=classic;html=1;rounded=0;entryX=0;entryY=0.5;entryDx=0;entryDy=0;" parent="1" source="g4EMc-4wjH0lB5KUr_8Z-4" target="zgoLNW42WSqc04WnMS89-18" edge="1">
          <mxGeometry width="50" height="50" relative="1" as="geometry">
            <mxPoint x="200" y="160" as="sourcePoint" />
            <mxPoint x="350" y="256.5" as="targetPoint" />
            <Array as="points" />
          </mxGeometry>
        </mxCell>
        <mxCell id="zgoLNW42WSqc04WnMS89-40" value="" style="endArrow=classic;html=1;rounded=0;entryX=0;entryY=0.5;entryDx=0;entryDy=0;" parent="1" source="g4EMc-4wjH0lB5KUr_8Z-4" target="zgoLNW42WSqc04WnMS89-19" edge="1">
          <mxGeometry width="50" height="50" relative="1" as="geometry">
            <mxPoint x="210" y="170" as="sourcePoint" />
            <mxPoint x="343" y="315" as="targetPoint" />
            <Array as="points" />
          </mxGeometry>
        </mxCell>
        <mxCell id="zgoLNW42WSqc04WnMS89-41" value="" style="endArrow=classic;html=1;rounded=0;entryX=0;entryY=0.5;entryDx=0;entryDy=0;" parent="1" source="g4EMc-4wjH0lB5KUr_8Z-4" target="zgoLNW42WSqc04WnMS89-20" edge="1">
          <mxGeometry width="50" height="50" relative="1" as="geometry">
            <mxPoint x="220" y="180" as="sourcePoint" />
            <mxPoint x="343" y="360" as="targetPoint" />
            <Array as="points" />
          </mxGeometry>
        </mxCell>
        <mxCell id="zgoLNW42WSqc04WnMS89-42" value="" style="endArrow=classic;html=1;rounded=0;entryX=0;entryY=0;entryDx=0;entryDy=0;" parent="1" source="g4EMc-4wjH0lB5KUr_8Z-4" target="zgoLNW42WSqc04WnMS89-21" edge="1">
          <mxGeometry width="50" height="50" relative="1" as="geometry">
            <mxPoint x="230" y="190" as="sourcePoint" />
            <mxPoint x="343" y="410" as="targetPoint" />
            <Array as="points" />
          </mxGeometry>
        </mxCell>
        <mxCell id="zgoLNW42WSqc04WnMS89-43" value="&lt;b style=&quot;&quot;&gt;&lt;font style=&quot;font-size: 14px;&quot;&gt;CREATE NEW USER ACCOUNT&lt;/font&gt;&lt;/b&gt;" style="ellipse;whiteSpace=wrap;html=1;" parent="1" vertex="1">
          <mxGeometry x="277.82" y="660" width="117.49" height="50" as="geometry" />
        </mxCell>
        <mxCell id="zgoLNW42WSqc04WnMS89-44" value="&lt;b&gt;&lt;font style=&quot;font-size: 14px;&quot;&gt;GIVE PERMISSION TO OFFICER&amp;nbsp;&lt;/font&gt;&lt;/b&gt;" style="ellipse;whiteSpace=wrap;html=1;" parent="1" vertex="1">
          <mxGeometry x="260.93" y="540" width="134.38" height="60" as="geometry" />
        </mxCell>
        <mxCell id="zgoLNW42WSqc04WnMS89-45" value="&lt;b&gt;&lt;font style=&quot;font-size: 14px;&quot;&gt;MANAGE USER SUPPORT&lt;/font&gt;&lt;/b&gt;" style="ellipse;whiteSpace=wrap;html=1;" parent="1" vertex="1">
          <mxGeometry x="270.62" y="600" width="117.5" height="50" as="geometry" />
        </mxCell>
        <mxCell id="zgoLNW42WSqc04WnMS89-46" value="&lt;font style=&quot;font-size: 15px;&quot;&gt;&lt;b style=&quot;&quot;&gt;&amp;nbsp;LOGIN&lt;/b&gt;&lt;/font&gt;" style="ellipse;whiteSpace=wrap;html=1;" parent="1" vertex="1">
          <mxGeometry x="320" y="490" width="106.57" height="40" as="geometry" />
        </mxCell>
        <mxCell id="zgoLNW42WSqc04WnMS89-48" value="" style="endArrow=classic;html=1;rounded=0;entryX=0;entryY=0.5;entryDx=0;entryDy=0;exitX=0.5;exitY=0.5;exitDx=0;exitDy=0;exitPerimeter=0;" parent="1" source="zgoLNW42WSqc04WnMS89-11" target="zgoLNW42WSqc04WnMS89-46" edge="1">
          <mxGeometry width="50" height="50" relative="1" as="geometry">
            <mxPoint x="110" y="680" as="sourcePoint" />
            <mxPoint x="390" y="650" as="targetPoint" />
            <Array as="points" />
          </mxGeometry>
        </mxCell>
        <mxCell id="zgoLNW42WSqc04WnMS89-49" value="" style="endArrow=classic;html=1;rounded=0;exitX=0.5;exitY=0.5;exitDx=0;exitDy=0;exitPerimeter=0;" parent="1" source="zgoLNW42WSqc04WnMS89-11" target="zgoLNW42WSqc04WnMS89-44" edge="1">
          <mxGeometry width="50" height="50" relative="1" as="geometry">
            <mxPoint x="100" y="680" as="sourcePoint" />
            <mxPoint x="311" y="575" as="targetPoint" />
            <Array as="points" />
          </mxGeometry>
        </mxCell>
        <mxCell id="zgoLNW42WSqc04WnMS89-50" value="" style="endArrow=classic;html=1;rounded=0;entryX=0;entryY=0.5;entryDx=0;entryDy=0;exitX=0.5;exitY=0.5;exitDx=0;exitDy=0;exitPerimeter=0;" parent="1" source="zgoLNW42WSqc04WnMS89-11" target="zgoLNW42WSqc04WnMS89-45" edge="1">
          <mxGeometry width="50" height="50" relative="1" as="geometry">
            <mxPoint x="100" y="680" as="sourcePoint" />
            <mxPoint x="304" y="643" as="targetPoint" />
            <Array as="points" />
          </mxGeometry>
        </mxCell>
        <mxCell id="zgoLNW42WSqc04WnMS89-51" value="" style="endArrow=classic;html=1;rounded=0;entryX=0;entryY=0.5;entryDx=0;entryDy=0;" parent="1" target="zgoLNW42WSqc04WnMS89-43" edge="1">
          <mxGeometry width="50" height="50" relative="1" as="geometry">
            <mxPoint x="110" y="610" as="sourcePoint" />
            <mxPoint x="311" y="720" as="targetPoint" />
            <Array as="points" />
          </mxGeometry>
        </mxCell>
        <mxCell id="zgoLNW42WSqc04WnMS89-53" value="&lt;span style=&quot;font-size: 13px;&quot;&gt;&lt;b&gt;EDIT POLICY DESCRIPTION&lt;/b&gt;&lt;/span&gt;" style="ellipse;whiteSpace=wrap;html=1;" parent="1" vertex="1">
          <mxGeometry x="734" y="69.5" width="133" height="61" as="geometry" />
        </mxCell>
        <mxCell id="zgoLNW42WSqc04WnMS89-56" value="" style="endArrow=classic;html=1;rounded=0;entryX=1;entryY=0.5;entryDx=0;entryDy=0;" parent="1" source="zgoLNW42WSqc04WnMS89-12" target="zgoLNW42WSqc04WnMS89-53" edge="1">
          <mxGeometry width="50" height="50" relative="1" as="geometry">
            <mxPoint x="960" y="270" as="sourcePoint" />
            <mxPoint x="618" y="183" as="targetPoint" />
            <Array as="points" />
          </mxGeometry>
        </mxCell>
        <mxCell id="zgoLNW42WSqc04WnMS89-57" value="" style="endArrow=classic;html=1;rounded=0;" parent="1" target="zgoLNW42WSqc04WnMS89-58" edge="1">
          <mxGeometry width="50" height="50" relative="1" as="geometry">
            <mxPoint x="970" y="230" as="sourcePoint" />
            <mxPoint x="630" y="265" as="targetPoint" />
            <Array as="points" />
          </mxGeometry>
        </mxCell>
        <mxCell id="zgoLNW42WSqc04WnMS89-58" value="&lt;b&gt;&lt;font style=&quot;font-size: 15px;&quot;&gt;APPROVE CLAIMS&lt;/font&gt;&lt;/b&gt;" style="ellipse;whiteSpace=wrap;html=1;" parent="1" vertex="1">
          <mxGeometry x="734" y="305" width="144" height="50" as="geometry" />
        </mxCell>
        <mxCell id="zgoLNW42WSqc04WnMS89-59" value="&lt;b&gt;&lt;font style=&quot;font-size: 15px;&quot;&gt;APPROVE POLICY APPLICATION&lt;/font&gt;&lt;/b&gt;" style="ellipse;whiteSpace=wrap;html=1;" parent="1" vertex="1">
          <mxGeometry x="721.99" y="160" width="156" height="50" as="geometry" />
        </mxCell>
        <mxCell id="zgoLNW42WSqc04WnMS89-60" value="" style="endArrow=classic;html=1;rounded=0;entryX=1;entryY=0.5;entryDx=0;entryDy=0;" parent="1" target="zgoLNW42WSqc04WnMS89-59" edge="1">
          <mxGeometry width="50" height="50" relative="1" as="geometry">
            <mxPoint x="970" y="220" as="sourcePoint" />
            <mxPoint x="630" y="400" as="targetPoint" />
            <Array as="points" />
          </mxGeometry>
        </mxCell>
        <mxCell id="vedJtlEBp7zf3GRxdTVP-1" value="&lt;b&gt;&lt;font&gt;RECEIVE&lt;/font&gt;&lt;/b&gt;&lt;div&gt;&lt;b&gt;&lt;font&gt;NOTIFICATION&lt;/font&gt;&lt;/b&gt;&lt;/div&gt;" style="ellipse;whiteSpace=wrap;html=1;" parent="1" vertex="1">
          <mxGeometry x="460" y="291" width="100" height="40" as="geometry" />
        </mxCell>
        <mxCell id="vedJtlEBp7zf3GRxdTVP-4" value="&lt;b style=&quot;&quot;&gt;&lt;font style=&quot;font-size: 13px;&quot;&gt;SIGN CONTRACT&amp;nbsp;&amp;nbsp;&lt;/font&gt;&lt;/b&gt;" style="ellipse;whiteSpace=wrap;html=1;" parent="1" vertex="1">
          <mxGeometry x="470" y="60" width="90" height="40" as="geometry" />
        </mxCell>
        <mxCell id="nigAQ6fe36C3DfZ-E-yw-26" value="&lt;b&gt;&lt;font style=&quot;font-size: 15px;&quot;&gt;DENY POLICY APPLICATION&lt;/font&gt;&lt;/b&gt;" style="ellipse;whiteSpace=wrap;html=1;" parent="1" vertex="1">
          <mxGeometry x="734" y="241" width="138" height="50" as="geometry" />
        </mxCell>
        <mxCell id="nigAQ6fe36C3DfZ-E-yw-27" value="" style="endArrow=classic;html=1;rounded=0;exitX=0;exitY=0.3333333333333333;exitDx=0;exitDy=0;exitPerimeter=0;entryX=1;entryY=0;entryDx=0;entryDy=0;" parent="1" target="nigAQ6fe36C3DfZ-E-yw-26" edge="1">
          <mxGeometry width="50" height="50" relative="1" as="geometry">
            <mxPoint x="980" y="222" as="sourcePoint" />
            <mxPoint x="840" y="441" as="targetPoint" />
            <Array as="points" />
          </mxGeometry>
        </mxCell>
        <mxCell id="nigAQ6fe36C3DfZ-E-yw-29" value="&lt;b&gt;&lt;font style=&quot;font-size: 15px;&quot;&gt;DENY CLAIMS&lt;/font&gt;&lt;/b&gt;" style="ellipse;whiteSpace=wrap;html=1;" parent="1" vertex="1">
          <mxGeometry x="744" y="370" width="124" height="40" as="geometry" />
        </mxCell>
        <mxCell id="nigAQ6fe36C3DfZ-E-yw-30" value="" style="endArrow=classic;html=1;rounded=0;entryX=1;entryY=0;entryDx=0;entryDy=0;" parent="1" target="nigAQ6fe36C3DfZ-E-yw-29" edge="1">
          <mxGeometry width="50" height="50" relative="1" as="geometry">
            <mxPoint x="980" y="240" as="sourcePoint" />
            <mxPoint x="832" y="391" as="targetPoint" />
            <Array as="points" />
          </mxGeometry>
        </mxCell>
        <mxCell id="nigAQ6fe36C3DfZ-E-yw-31" value="&lt;span style=&quot;font-size: 15px;&quot;&gt;&lt;b&gt;VIEW CLIENTS&lt;/b&gt;&lt;/span&gt;" style="ellipse;whiteSpace=wrap;html=1;" parent="1" vertex="1">
          <mxGeometry x="741" y="430" width="124" height="40" as="geometry" />
        </mxCell>
        <mxCell id="nigAQ6fe36C3DfZ-E-yw-32" value="" style="endArrow=classic;html=1;rounded=0;entryX=1;entryY=0;entryDx=0;entryDy=0;exitX=0.5;exitY=0.5;exitDx=0;exitDy=0;exitPerimeter=0;" parent="1" source="zgoLNW42WSqc04WnMS89-12" target="nigAQ6fe36C3DfZ-E-yw-31" edge="1">
          <mxGeometry width="50" height="50" relative="1" as="geometry">
            <mxPoint x="990" y="250" as="sourcePoint" />
            <mxPoint x="864" y="456" as="targetPoint" />
            <Array as="points" />
          </mxGeometry>
        </mxCell>
        <mxCell id="nigAQ6fe36C3DfZ-E-yw-37" value="&lt;b&gt;POLICY OFFICER REGISTRATION&lt;/b&gt;" style="ellipse;whiteSpace=wrap;html=1;" parent="1" vertex="1">
          <mxGeometry x="730" y="10" width="107.87" height="50" as="geometry" />
        </mxCell>
        <mxCell id="nigAQ6fe36C3DfZ-E-yw-38" style="edgeStyle=orthogonalEdgeStyle;rounded=0;orthogonalLoop=1;jettySize=auto;html=1;exitX=0.5;exitY=1;exitDx=0;exitDy=0;" parent="1" source="zgoLNW42WSqc04WnMS89-13" target="zgoLNW42WSqc04WnMS89-13" edge="1">
          <mxGeometry relative="1" as="geometry" />
        </mxCell>
        <mxCell id="nigAQ6fe36C3DfZ-E-yw-40" value="" style="endArrow=classic;html=1;rounded=0;entryX=1;entryY=0.5;entryDx=0;entryDy=0;" parent="1" source="zgoLNW42WSqc04WnMS89-12" target="nigAQ6fe36C3DfZ-E-yw-37" edge="1">
          <mxGeometry width="50" height="50" relative="1" as="geometry">
            <mxPoint x="980" y="215" as="sourcePoint" />
            <mxPoint x="878" y="135" as="targetPoint" />
            <Array as="points" />
          </mxGeometry>
        </mxCell>
        <mxCell id="nigAQ6fe36C3DfZ-E-yw-46" value="&lt;b&gt;RESET PASSWORD&lt;/b&gt;" style="ellipse;whiteSpace=wrap;html=1;" parent="1" vertex="1">
          <mxGeometry x="495" y="585" width="130" height="55" as="geometry" />
        </mxCell>
        <mxCell id="nigAQ6fe36C3DfZ-E-yw-53" value="&lt;span style=&quot;font-size: 13px;&quot;&gt;&lt;b&gt;CHECK ELIGIBILITY&amp;nbsp;&lt;/b&gt;&lt;/span&gt;" style="ellipse;whiteSpace=wrap;html=1;" parent="1" vertex="1">
          <mxGeometry x="480" y="191" width="90" height="40" as="geometry" />
        </mxCell>
        <mxCell id="nigAQ6fe36C3DfZ-E-yw-63" value="&lt;font style=&quot;font-size: 13px;&quot;&gt;&amp;lt;AUTOMATED&amp;gt;&lt;/font&gt;&lt;div&gt;&lt;b&gt;&lt;font style=&quot;font-size: 13px;&quot;&gt;AGE &amp;lt;65&lt;/font&gt;&lt;/b&gt;&lt;/div&gt;&lt;div&gt;&lt;b&gt;&lt;font style=&quot;font-size: 13px;&quot;&gt;REQUIRED INFO&lt;/font&gt;&lt;/b&gt;&lt;/div&gt;&lt;div&gt;&lt;b&gt;&lt;font style=&quot;font-size: 13px;&quot;&gt;NO DUPLICATE&lt;/font&gt;&lt;/b&gt;&lt;/div&gt;" style="shape=note;whiteSpace=wrap;html=1;backgroundOutline=1;darkOpacity=0.05;size=0;fillColor=#fff2cc;strokeColor=#d6b656;" parent="1" vertex="1">
          <mxGeometry x="680" y="514" width="110" height="100" as="geometry" />
        </mxCell>
        <mxCell id="nigAQ6fe36C3DfZ-E-yw-65" value="" style="endArrow=none;dashed=1;html=1;dashPattern=1 3;strokeWidth=2;rounded=0;entryX=1;entryY=0;entryDx=0;entryDy=0;exitX=0.5;exitY=0;exitDx=0;exitDy=0;exitPerimeter=0;" parent="1" source="nigAQ6fe36C3DfZ-E-yw-63" target="nigAQ6fe36C3DfZ-E-yw-53" edge="1">
          <mxGeometry width="50" height="50" relative="1" as="geometry">
            <mxPoint x="770" y="440" as="sourcePoint" />
            <mxPoint x="820" y="390" as="targetPoint" />
          </mxGeometry>
        </mxCell>
        <mxCell id="reEALOcsk1lr8d-6GgbJ-10" value="" style="endArrow=classic;html=1;rounded=0;exitX=0;exitY=0.5;exitDx=0;exitDy=0;entryX=0.973;entryY=0.302;entryDx=0;entryDy=0;entryPerimeter=0;" edge="1" parent="1" target="zgoLNW42WSqc04WnMS89-14">
          <mxGeometry relative="1" as="geometry">
            <mxPoint x="499.99999999999994" y="-20" as="sourcePoint" />
            <mxPoint x="390" y="20" as="targetPoint" />
          </mxGeometry>
        </mxCell>
        <mxCell id="reEALOcsk1lr8d-6GgbJ-14" value="&lt;font style=&quot;font-size: 13px;&quot;&gt;&amp;lt;&amp;lt;Extend&amp;gt;&amp;gt;&lt;/font&gt;" style="edgeLabel;html=1;align=center;verticalAlign=middle;resizable=0;points=[];" vertex="1" connectable="0" parent="reEALOcsk1lr8d-6GgbJ-10">
          <mxGeometry x="-0.1982" y="1" relative="1" as="geometry">
            <mxPoint as="offset" />
          </mxGeometry>
        </mxCell>
        <mxCell id="reEALOcsk1lr8d-6GgbJ-19" value="" style="endArrow=classic;html=1;rounded=0;entryX=0.003;entryY=0.302;entryDx=0;entryDy=0;exitX=1;exitY=0.5;exitDx=0;exitDy=0;entryPerimeter=0;" edge="1" parent="1" source="zgoLNW42WSqc04WnMS89-13" target="nigAQ6fe36C3DfZ-E-yw-37">
          <mxGeometry relative="1" as="geometry">
            <mxPoint x="550" as="sourcePoint" />
            <mxPoint x="378.1200000000026" y="41" as="targetPoint" />
          </mxGeometry>
        </mxCell>
        <mxCell id="reEALOcsk1lr8d-6GgbJ-20" value="&lt;font style=&quot;font-size: 13px;&quot;&gt;&amp;lt;&amp;lt;Extend&amp;gt;&amp;gt;&lt;/font&gt;" style="edgeLabel;html=1;align=center;verticalAlign=middle;resizable=0;points=[];" vertex="1" connectable="0" parent="reEALOcsk1lr8d-6GgbJ-19">
          <mxGeometry x="-0.1982" y="1" relative="1" as="geometry">
            <mxPoint as="offset" />
          </mxGeometry>
        </mxCell>
        <mxCell id="reEALOcsk1lr8d-6GgbJ-21" value="" style="endArrow=classic;html=1;rounded=0;entryX=0.04;entryY=0.826;entryDx=0;entryDy=0;exitX=1;exitY=0.5;exitDx=0;exitDy=0;entryPerimeter=0;" edge="1" parent="1" source="zgoLNW42WSqc04WnMS89-16" target="vedJtlEBp7zf3GRxdTVP-4">
          <mxGeometry relative="1" as="geometry">
            <mxPoint x="509.99999999999994" y="-10" as="sourcePoint" />
            <mxPoint x="378.1200000000026" y="41" as="targetPoint" />
          </mxGeometry>
        </mxCell>
        <mxCell id="reEALOcsk1lr8d-6GgbJ-22" value="&lt;font style=&quot;font-size: 13px;&quot;&gt;&amp;lt;&amp;lt;Include&amp;gt;&amp;gt;&lt;/font&gt;" style="edgeLabel;html=1;align=center;verticalAlign=middle;resizable=0;points=[];" vertex="1" connectable="0" parent="reEALOcsk1lr8d-6GgbJ-21">
          <mxGeometry x="-0.1982" y="1" relative="1" as="geometry">
            <mxPoint as="offset" />
          </mxGeometry>
        </mxCell>
        <mxCell id="reEALOcsk1lr8d-6GgbJ-23" value="" style="endArrow=classic;html=1;rounded=0;entryX=0;entryY=0;entryDx=0;entryDy=0;exitX=1;exitY=0.5;exitDx=0;exitDy=0;" edge="1" parent="1" source="zgoLNW42WSqc04WnMS89-16" target="nigAQ6fe36C3DfZ-E-yw-53">
          <mxGeometry relative="1" as="geometry">
            <mxPoint x="398" y="155" as="sourcePoint" />
            <mxPoint x="484" y="113" as="targetPoint" />
          </mxGeometry>
        </mxCell>
        <mxCell id="reEALOcsk1lr8d-6GgbJ-24" value="&lt;font style=&quot;font-size: 13px;&quot;&gt;&amp;lt;&amp;lt;Include&amp;gt;&amp;gt;&lt;/font&gt;" style="edgeLabel;html=1;align=center;verticalAlign=middle;resizable=0;points=[];" vertex="1" connectable="0" parent="reEALOcsk1lr8d-6GgbJ-23">
          <mxGeometry x="-0.1982" y="1" relative="1" as="geometry">
            <mxPoint as="offset" />
          </mxGeometry>
        </mxCell>
        <mxCell id="reEALOcsk1lr8d-6GgbJ-25" value="" style="endArrow=classic;html=1;rounded=0;exitX=1;exitY=0.5;exitDx=0;exitDy=0;" edge="1" parent="1" source="zgoLNW42WSqc04WnMS89-17" target="vedJtlEBp7zf3GRxdTVP-1">
          <mxGeometry relative="1" as="geometry">
            <mxPoint x="398" y="155" as="sourcePoint" />
            <mxPoint x="473" y="207" as="targetPoint" />
          </mxGeometry>
        </mxCell>
        <mxCell id="reEALOcsk1lr8d-6GgbJ-26" value="&lt;font style=&quot;font-size: 13px;&quot;&gt;&amp;lt;&amp;lt;Include&amp;gt;&amp;gt;&lt;/font&gt;" style="edgeLabel;html=1;align=center;verticalAlign=middle;resizable=0;points=[];" vertex="1" connectable="0" parent="reEALOcsk1lr8d-6GgbJ-25">
          <mxGeometry x="-0.1982" y="1" relative="1" as="geometry">
            <mxPoint as="offset" />
          </mxGeometry>
        </mxCell>
        <mxCell id="reEALOcsk1lr8d-6GgbJ-27" value="" style="endArrow=classic;html=1;rounded=0;exitX=1;exitY=0.5;exitDx=0;exitDy=0;entryX=0;entryY=0.5;entryDx=0;entryDy=0;" edge="1" parent="1" source="zgoLNW42WSqc04WnMS89-45" target="nigAQ6fe36C3DfZ-E-yw-46">
          <mxGeometry relative="1" as="geometry">
            <mxPoint x="391" y="226" as="sourcePoint" />
            <mxPoint x="488" y="303" as="targetPoint" />
          </mxGeometry>
        </mxCell>
        <mxCell id="reEALOcsk1lr8d-6GgbJ-28" value="&lt;font style=&quot;font-size: 13px;&quot;&gt;&amp;lt;&amp;lt;Include&amp;gt;&amp;gt;&lt;/font&gt;" style="edgeLabel;html=1;align=center;verticalAlign=middle;resizable=0;points=[];" vertex="1" connectable="0" parent="reEALOcsk1lr8d-6GgbJ-27">
          <mxGeometry x="-0.1982" y="1" relative="1" as="geometry">
            <mxPoint as="offset" />
          </mxGeometry>
        </mxCell>
      </root>
    </mxGraphModel>
  </diagram>
</mxfile>
